<svg version="1.1" xmlns="http://www.w3.org/2000/svg" xmlns:xlink="http://www.w3.org/1999/xlink" data-browser="Chrome[97.0]" preserveAspectRatio="xMidYMid meet" viewBox="0 0 136 152"><g id="logo__item--business" class="logo__item">
                <g class="logo__item__inner" transform="translate(2.91015625 150.05037189121776) scale(1 1) rotate(0 0 0)">
                    <text dy="" dominant-baseline="auto" alignment-baseline="auto" font-family="'Raleway'" font-size="32px" fill="#DA802E" letter-spacing="0" font-weight="normal" font-style="normal">Starwind</text>
                </g>
            </g><g id="logo__item--logo_0" class="logo__item">
    <g class="logo__item__inner" transform="translate(-9.654555654383557 -21) scale(1.6400793729412513 1.6400793729412513) rotate(0 0 0)">
        
<g>
	
		<linearGradient id="SVGID_1_" gradientUnits="userSpaceOnUse" x1="-427.4941" y1="557.3711" x2="-418.9163" y2="557.3711" gradientTransform="matrix(1.9665 9.2514 9.2514 -1.9665 -4276.6855 5058.4033)">
		<stop offset="0" style="stop-color:#DA802E"></stop>
		<stop offset="0.5" style="stop-color:#C90087"></stop>
		<stop offset="1" style="stop-color:#33348D"></stop>
	</linearGradient>
	<path fill="url(#SVGID_1_)" d="M35.381,66.142C53.49,83.728,74.947,90.992,83.328,82.377c0.399-0.411,0.751-0.86,1.077-1.328   c-7.82,5.581-24.913-0.687-39.443-14.809C29.601,51.326,22.914,33.289,30.016,25.979c6.73-6.922,23.412-1.746,38.208,11.479   c-0.819-0.857-1.655-1.71-2.522-2.552C52.785,22.357,38.127,15.061,27.756,15.061c-4.137,0-7.589,1.15-9.986,3.62   C9.398,27.298,17.269,48.545,35.381,66.142z"></path>
	<path fill="#F1C930" d="M37.358,30.357c-6.354,6.523-0.367,22.609,13.333,35.926C63.933,79.162,79.528,84.72,86.31,79.224   c0.245-0.199,0.48-0.408,0.702-0.636c0.206-0.213,0.397-0.436,0.578-0.668c-6.07,4.893-19.995-0.091-31.824-11.573   c-12.242-11.921-17.573-26.292-11.91-32.114c5.499-5.657,19.278-1.229,31.279,9.878c-0.477-0.49-0.961-0.978-1.458-1.46   c-0.481-0.468-0.968-0.923-1.455-1.371C58.826,28.964,43.48,24.054,37.358,30.357z"></path>
	<path fill="#FFFFFF" d="M76.926,65.545c-2.181-2.11-2.21-5.596-0.1-7.765c2.111-2.163,5.576-2.22,7.754-0.114   c2.18,2.114,2.227,5.584,0.115,7.761C82.587,67.602,79.087,67.661,76.926,65.545z"></path>
	<path fill="#CB2229" d="M84.58,57.666c-2.178-2.105-5.643-2.049-7.754,0.114c-2.11,2.169-2.081,5.654,0.1,7.765   c2.161,2.116,5.661,2.057,7.77-0.118C86.807,63.25,86.76,59.78,84.58,57.666z"></path>
</g>

    </g>
</g></svg>